<?xml version="1.0" standalone="no"?>
<!DOCTYPE svg PUBLIC "-//W3C//DTD SVG 1.1//EN" "http://www.w3.org/Graphics/SVG/1.1/DTD/svg11.dtd">
<svg version="1.1" xmlns="http://www.w3.org/2000/svg" viewBox="0 0 88.24419256050533 97.9933629262921" width="88.24419256050533" height="97.9933629262921"><!-- svg-source:excalidraw --><metadata></metadata><defs><style class="style-fonts">
      </style></defs><g stroke-linecap="round"><g transform="translate(10 10.000000000000227) rotate(0 34.12209628025266 0)"><path d="M0 0 C11.37 0, 56.87 0, 68.24 0 M0 0 C11.37 0, 56.87 0, 68.24 0" stroke="#ffffff" stroke-width="4" fill="none"></path></g></g><mask></mask><g stroke-linecap="round"><g transform="translate(10 10.000000000000227) rotate(0 17.06104814012633 38.99668146314593)"><path d="M0 0 C5.69 13, 28.44 64.99, 34.12 77.99 M0 0 C5.69 13, 28.44 64.99, 34.12 77.99" stroke="#ffffff" stroke-width="4" fill="none"></path></g></g><mask></mask><g stroke-linecap="round"><g transform="translate(78.24419256050533 10.000000000000227) rotate(0 -17.06104814012633 38.99668146314593)"><path d="M0 0 C-5.69 13, -28.44 64.99, -34.12 77.99 M0 0 C-5.69 13, -28.44 64.99, -34.12 77.99" stroke="#ffffff" stroke-width="4" fill="none"></path></g></g><mask></mask><g stroke-linecap="round"><g transform="translate(78.24419256050533 87.99336292629187) rotate(0 -34.12209628025266 0)"><path d="M0 0 C-11.37 0, -56.87 0, -68.24 0 M0 0 C-11.37 0, -56.87 0, -68.24 0" stroke="#ffffff" stroke-width="4" fill="none"></path></g></g><mask></mask><g stroke-linecap="round"><g transform="translate(78.24419256050533 87.99336292629187) rotate(0 -17.06104814012633 -38.99668146314593)"><path d="M0 0 C-5.69 -13, -28.44 -64.99, -34.12 -77.99 M0 0 C-5.69 -13, -28.44 -64.99, -34.12 -77.99" stroke="#ffffff" stroke-width="4" fill="none"></path></g></g><mask></mask><g stroke-linecap="round"><g transform="translate(10 87.99336292629187) rotate(0 17.06104814012633 -38.99668146314593)"><path d="M0 0 C5.69 -13, 28.44 -64.99, 34.12 -77.99 M0 0 C5.69 -13, 28.44 -64.99, 34.12 -77.99" stroke="#ffffff" stroke-width="4" fill="none"></path></g></g><mask></mask><g stroke-linecap="round"><g transform="translate(27.061048140125877 48.99668146314593) rotate(0 17.06104814012633 0)"><path d="M0 0 C5.69 0, 28.44 0, 34.12 0 M0 0 C5.69 0, 28.44 0, 34.12 0" stroke="#ffffff" stroke-width="4" fill="none"></path></g></g><mask></mask></svg>